inDegrees=no
num_controls=7
num_derivatives=13
num_iterations=104
num_multipliers=7
num_parameters=0
num_slacks=7
num_states=26
objective=0.453816
objective_accelerations=0.047225
objective_balance=0.000957
objective_effort=0.037366
objective_height=0.362294
objective_ligament=0.005974
solver_duration=1196.339534
status=Solve_Succeeded
success=true
DataType=double
version=3
OpenSimVersion=4.5
endheader
time	/jointset/ground_pelvis/pelvis_tilt/value	/jointset/ground_pelvis/pelvis_tx/value	/jointset/ground_pelvis/pelvis_ty/value	/jointset/hip_r/hip_flexion_r/value	/jointset/hip_r/hip_adduction_r/value	/jointset/hip_r/hip_rotation_r/value	/jointset/back/lumbar_extension/value	/jointset/patellofemoral_r/patellar_flexion_r/value	/jointset/knee_r/knee_flexion_r/value	/jointset/knee_r/knee_adduction_r/value	/jointset/knee_r/knee_rotation_r/value	/jointset/ankle_r/ankle_angle_r/value	/jointset/subtalar_r/subtalar_angle_r/value	/jointset/ground_pelvis/pelvis_tilt/speed	/jointset/ground_pelvis/pelvis_tx/speed	/jointset/ground_pelvis/pelvis_ty/speed	/jointset/hip_r/hip_flexion_r/speed	/jointset/hip_r/hip_adduction_r/speed	/jointset/hip_r/hip_rotation_r/speed	/jointset/back/lumbar_extension/speed	/jointset/patellofemoral_r/patellar_flexion_r/speed	/jointset/knee_r/knee_flexion_r/speed	/jointset/knee_r/knee_adduction_r/speed	/jointset/knee_r/knee_rotation_r/speed	/jointset/ankle_r/ankle_angle_r/speed	/jointset/subtalar_r/subtalar_angle_r/speed	/forceset/tau_hip_flexion_r	/forceset/tau_hip_adduction_r	/forceset/tau_hip_rotation_r	/forceset/tau_knee_flexion_r	/forceset/tau_ankle_angle_r	/forceset/tau_subtalar_angle_r	/forceset/tau_lumbar_extension	lambda_cid13_p0	lambda_cid14_p0	lambda_cid14_p1	lambda_cid14_p2	lambda_cid14_p3	lambda_cid14_p4	lambda_cid14_p5	/jointset/ground_pelvis/pelvis_tilt/accel	/jointset/ground_pelvis/pelvis_tx/accel	/jointset/ground_pelvis/pelvis_ty/accel	/jointset/hip_r/hip_flexion_r/accel	/jointset/hip_r/hip_adduction_r/accel	/jointset/hip_r/hip_rotation_r/accel	/jointset/back/lumbar_extension/accel	/jointset/patellofemoral_r/patellar_flexion_r/accel	/jointset/knee_r/knee_flexion_r/accel	/jointset/knee_r/knee_adduction_r/accel	/jointset/knee_r/knee_rotation_r/accel	/jointset/ankle_r/ankle_angle_r/accel	/jointset/subtalar_r/subtalar_angle_r/accel	gamma_cid13_p0	gamma_cid14_p0	gamma_cid14_p1	gamma_cid14_p2	gamma_cid14_p3	gamma_cid14_p4	gamma_cid14_p5
0.5	-0.1311616644510506	0.02625467499220476	0.8086008953461427	0.8793073518129105	-0.2349008314335797	-0.09471783549641095	-0.6480318544910512	0.9543941141294839	0.9543941141294888	-0.003390549675620583	0.1745177280786613	0.2907963779489205	0.1181613795789321	-0.3493004997236699	-0.1990268401175404	-0.4920795355010564	1.834271150384494	-0.04810225620117555	0.3790190936430287	-0.7321899900812381	1.933256455066947	1.933256455066936	-0.2074806556213968	-0.0001507488214407839	0.5273804765008109	0.1171306960732295	-0.1930543419258406	0.01015147080526817	0.02422332478669799	-0.2943802374410374	0.008189581568963222	-0.008927753479934557	0.2380493125754368	-8.205409797718612	-40.4594995851322	-9.982485953946698	0.8951583191057553	-4.476355798816789	-642.0051158807761	57.37106948650003	0.308704292517246	0.5881075600916159	-0.4071937171029408	-1.22653411680239	0.009961061250028304	-0.05357177722366804	1.821035786530313	-1.321700502571183	-1.321700502571183	0.7190619248212504	-0.04068481971188452	-0.509554098739231	-0.08672887763551945	-7.665065538061781e-08	5.001875734135632e-08	1.564541147780585e-06	2.634762734895234e-08	-1.886524235478584e-07	-1.399437119255449e-07	1.027058004533257e-06
0.51	-0.1346384642515119	0.02429396805498675	0.8036608512550414	0.897585935191048	-0.235381729285693	-0.09093193237444451	-0.6552621652615394	0.9736577080932494	0.9736577080932652	-0.005429310217054847	0.1745160755539432	0.296043672173699	0.1193273908233578	-0.3460018673418854	-0.1930998936819116	-0.4958212750136029	1.821202893763287	-0.04806202506616122	0.3781406699547961	-0.7137930825770904	1.919204404287363	1.919204404287374	-0.200268295724012	-0.0001735714009161559	0.5220026822151146	0.1160627130551203	-0.1992567710399115	0.01142257035189107	0.02443648153677503	-0.2991365377516815	0.007136130572130402	-0.008643429578966176	0.2438495791760608	-7.254456505781796	-41.0966188580183	-10.11996448883705	1.087732964327947	-4.372709655160852	-646.7481356333727	57.44627629604123	0.349088377275362	0.5971489737966844	-0.3414918845929948	-1.383359383111004	0.003437705617970313	-0.1082447799868266	1.860880448240657	-1.485630962808999	-1.485630962805705	0.723012275858321	0.01788398115550769	-0.563289182726612	-0.1179160143199067	-8.176429585604002e-08	3.952260063529417e-08	1.5229434892464e-06	-5.144776266677856e-08	-1.805079845742066e-07	-1.412217632084959e-07	1.011788155890776e-06
0.52	-0.1380805485948959	0.02239296273982458	0.798686624205562	0.9157265584133136	-0.2358617481132482	-0.08715546691244132	-0.6623061345138084	0.9927730468297893	0.9927730468298118	-0.007395809308769797	0.1745143877950695	0.3012349090377721	0.1204825056375193	-0.3423574083094567	-0.1870865157063702	-0.4989161271766666	1.806679119208833	-0.04792645129152276	0.3771315616520158	-0.6949216864375997	1.9036054096215	1.903605409621533	-0.1930283656801828	-0.0001577956515555255	0.5161690043597461	0.1149514100201586	-0.2054592001539731	0.01269366989852205	0.02464963828684028	-0.3038928380623255	0.006082679575299605	-0.008359105677984494	0.2496498457766934	-6.36427527038478	-41.73159942240861	-10.2511727079908	1.27257375182141	-4.298817634043746	-651.4721868442269	57.55570839306063	0.3778696226460822	0.6053938680741558	-0.2778162472063677	-1.517637703451689	0.02902958917482796	-0.07970870013325575	1.915933513598944	-1.631089279827002	-1.631089279827002	0.7245759541100801	-0.03296515394463984	-0.6007308126736974	-0.09539288100601941	-8.116028086118467e-08	3.186227237971319e-08	1.425877660579016e-06	-9.995255368444057e-08	-1.688246181144629e-07	-1.338700765498344e-07	9.568715333197345e-07
0.53	-0.1414845286336385	0.02055246215003945	0.7936847084799955	0.9337148245010587	-0.2363399287522721	-0.08338941333666751	-0.6691591143016852	1.011724823326609	1.011724823326624	-0.009289617400751271	0.1745128060728182	0.3063655976228424	0.1216263015121726	-0.338383829520047	-0.1810046209073775	-0.5013556283248498	1.790738896762772	-0.0476929316743387	0.3760635606185719	-0.6756087359744724	1.886502273814966	1.886502273815001	-0.1857308885719468	-0.000159864651281116	0.5098991057441108	0.113802914080725	-0.2115405777957712	0.01387490125041147	0.02482980718442674	-0.3087831583276209	0.005005866868812769	-0.008131645679770087	0.2553169331628802	-5.535632670187863	-42.38668951483907	-10.41059965056402	1.46191501213398	-4.151376613714608	-656.2791881181944	57.64229180445248	0.4153215699653702	0.6109019497022042	-0.2103346085802011	-1.667490717223059	0.02308375479116923	-0.1228204985175556	1.948806087159065	-1.78705195159695	-1.787051951596755	0.7328752264641873	0.01599080797148978	-0.6505996571957541	-0.1251049612414808	-8.063053090865636e-08	2.458776792425887e-08	1.329154313787531e-06	-1.448281756105726e-07	-1.573268934669518e-07	-1.258312578034719e-07	8.973589851102038e-07
0.54	-0.1448471289719052	0.01877304344102225	0.7886617342309558	0.9515366331239418	-0.2368152600737537	-0.07963453470995073	-0.675816998530032	1.030498143221261	1.030498143221261	-0.01111034239417416	0.174511167376754	0.3114314911675188	0.122758507025267	-0.3340814682155678	-0.1748701395527851	-0.503127831871286	1.773387626235116	-0.04735658778512486	0.3748965718424282	-0.6559025745317714	1.867914089187215	1.867914089187251	-0.1784117459723625	-0.000169190412685491	0.5032099962809827	0.1126333377081126	-0.217621955437562	0.0150561326023084	0.02500997608197915	-0.3136734785929178	0.003929054162328008	-0.007904185681542612	0.260984020549074	-4.768740940511508	-43.0400735212919	-10.56371846852646	1.64338673561364	-4.035071191870807	-661.0749762356639	57.76486202889005	0.4436261256599942	0.6159111791940799	-0.1443567268569594	-1.799847319770667	0.04959444358076293	-0.0995062486732758	1.994575709513659	-1.928099044070611	-1.92809904407061	0.7289090523796973	-0.03441650628035915	-0.6845729821722407	-0.09960896764179854	-8.018294653487284e-08	1.774013235405109e-08	1.232809883114064e-06	-1.856885466269268e-07	-1.460345597606341e-07	-1.17032207811142e-07	8.327615830027706e-07
0.55	-0.1481651494607733	0.0170551677403592	0.7836243911638245	0.9691780428559384	-0.2372867055112194	-0.07589172448582503	-0.6822759682692771	1.049078281710105	1.049078281710128	-0.01285777181437663	0.1745093036433744	0.316428447525799	0.1238789263969828	-0.3294724168529477	-0.1687020856545606	-0.5042267493822783	1.754667409364474	-0.04691568119770387	0.3736329712497679	-0.6358414182517655	1.847872416903045	1.847872416903073	-0.1710867154872439	-0.0001980018732033373	0.496115381009203	0.1114472985123736	-0.2235253756990447	0.01614601404828731	0.02516210391627125	-0.3186892578043297	0.002842023422555512	-0.007738029887783745	0.2664598580044959	-4.063395333998986	-43.70644081445355	-10.74672517001585	1.830754189341743	-3.836733380329944	-665.8948581329273	57.85778100524276	0.4770781539070674	0.6176617588557017	-0.07557688387528419	-1.942143954001077	0.04389386250520222	-0.1447937270760394	2.019378847066266	-2.078364084668504	-2.07836408466977	0.7325740700778693	0.01371601052024277	-0.7318242767951837	-0.1284267921789072	-7.937859733142579e-08	1.140085567755253e-08	1.136190189571018e-06	-2.22209846750394e-07	-1.348671524983633e-07	-1.083093057743413e-07	7.661218676861921e-07
0.5600000000000001	-0.1514355727335396	0.01539905443142212	0.7785794753974522	0.9866254434025775	-0.237753230863564	-0.07216255162013824	-0.6885328277937567	1.067450770923297	1.067450770923333	-0.01453229612500203	0.1745073176906722	0.3213524740359384	0.1249874202974147	-0.3245620249965744	-0.1625176612075889	-0.5046423717194829	1.734585789162224	-0.04637257076299497	0.3721691001565677	-0.6154805315788745	1.826384234055743	1.826384234055762	-0.1638307240621329	-0.0001936342754110122	0.4886240266528486	0.1102482434510757	-0.2294287959605211	0.01723589549427442	0.02531423175051125	-0.3237050370157446	0.0017549926827854	-0.007571874094010098	0.271935695459924	-3.419239312598484	-44.37178379094554	-10.92357163289633	2.010308085029318	-3.670040939871069	-670.7144696519507	57.98780437172048	0.5038942244106497	0.6191852889435187	-0.007697692099387453	-2.072127986092312	0.07003521303832355	-0.1395603487812926	2.054521788090712	-2.217401156696977	-2.217401156696977	0.7151012403781396	-0.02778069461829407	-0.7639207990872051	-0.1022121407535778	-7.81461303323825e-08	5.671609673505014e-09	1.03924018058448e-06	-2.535242618023969e-07	-1.238496569689487e-07	-9.96777812841754e-08	6.970313765186391e-07
